<svg version="1.1" xmlns="http://www.w3.org/2000/svg" xmlns:xlink="http://www.w3.org/1999/xlink" width="1956.5671641791046" height="808"><defs/><g transform="translate(0,0)"><g><rect fill="#FFFFFF" stroke="none" x="0" y="0" width="1956.5671641791046" height="808"/></g><g transform="translate(0,0) matrix(1,0,0,1,24,9)"><g><g transform="translate(0,0) scale(1.8,1.31)"><g><path fill="#FFFFFF" stroke="none" d="M 100 50 A 50 50 0 1 0 99.99997500000207 50.04999999166668 Z"/><g transform="scale(0.5555555555555556,0.7633587786259541)"><path fill="none" stroke="#333333" d="M 90 0 M 90 0 C 139.705623 0 180 29.32535215 180 65.5 C 180 101.67464785 139.705623 131 90 131 C 40.294377000000004 131 0 101.67464785 0 65.5 C 0 29.32535215 40.294377000000004 0 90 0 Z" stroke-miterlimit="10" stroke-width="2"/></g></g></g></g></g><g transform="scale(1,1) matrix(1,0,0,1,27.599999999999998,9) translate(8,58.5)"><text fill="#000000" stroke="none" font-family="Arial" font-size="12px" font-style="normal" font-weight="normal" text-decoration="none" x="14.693945312499991" y="11">Create Student Account</text></g><g transform="translate(0,0) matrix(1,0,0,1,240,140)"><g><g transform="translate(0,0) scale(1.8,1.1)"><g><path fill="#FFFFFF" stroke="none" d="M 100 50 A 50 50 0 1 0 99.99997500000207 50.04999999166668 Z"/><g transform="scale(0.5555555555555556,0.9090909090909091)"><path fill="none" stroke="#333333" d="M 90 0 M 90 0 C 139.705623 0 180 24.624341500000007 180 55.00000000000001 C 180 85.37565850000001 139.705623 110.00000000000001 90 110.00000000000001 C 40.294377000000004 110.00000000000001 0 85.37565850000001 0 55.00000000000001 C 0 24.624341500000007 40.294377000000004 0 90 0 Z" stroke-miterlimit="10" stroke-width="2"/></g></g></g></g></g><g transform="scale(1,1) matrix(1,0,0,1,243.6,140) translate(8,48)"><text fill="#000000" stroke="none" font-family="Arial" font-size="12px" font-style="normal" font-weight="normal" text-decoration="none" x="15.358984374999977" y="11">Delete Student Account</text></g><g transform="translate(0.5,0.5) matrix(1,0,0,1,141,470)"><g><g transform="translate(0,0) translate(0,0) scale(2.1,2)"><g><path fill="#FFFFFF" stroke="none" d="M 20 5 A 5 5 0 1 0 19.999997500000205 5.004999999166668 Z"/><g transform="scale(0.47619047619047616,0.5)"><path fill="none" stroke="#000000" d="M 31.5 0 C 37.29898935 0 42 4.477153 42 10 C 42 15.522846999999999 37.29898935 20 31.5 20 C 25.70101065 20 21 15.522846999999999 21 10 C 21 4.477153 25.70101065 0 31.5 0 Z" stroke-miterlimit="10"/></g></g><g><g transform="scale(0.47619047619047616,0.5)"><path fill="none" stroke="#000000" d="M 31.5 20 L 31.5 60" stroke-miterlimit="10"/></g></g><g><g transform="scale(0.47619047619047616,0.5)"><path fill="none" stroke="#000000" d="M 31.5 60 L 21 100" stroke-miterlimit="10"/></g></g><g><g transform="scale(0.47619047619047616,0.5)"><path fill="none" stroke="#000000" d="M 31.5 60 L 42 100" stroke-miterlimit="10"/></g></g><g><g transform="scale(0.47619047619047616,0.5)"><path fill="none" stroke="#000000" d="M 31.5 60 L 42 100" stroke-miterlimit="10"/></g></g><g><g transform="scale(0.47619047619047616,0.5)"><path fill="none" stroke="#000000" d="M 0 30 L 63 30" stroke-miterlimit="10"/></g></g></g></g></g><g transform="scale(1,1) matrix(1,0,0,1,143,470) translate(13,102)"><text fill="#000000" stroke="none" font-family="Arial" font-size="12px" font-style="normal" font-weight="normal" text-decoration="none" x="2.498046875" y="11">ODS</text></g><g transform="matrix(1,0,0,1,110,136)"><g transform="translate(0,0)"><g transform="translate(-62,-180) translate(-48,44) matrix(1,0,0,1,0,0)"><g><path fill="none" stroke="#000000" d="M 141 520 L 114 520 L 114 140" stroke-miterlimit="10"/></g></g></g></g><g transform="scale(1,1) matrix(1,0,0,1,62,180) translate(1,86.27334465195247)"><g><rect fill="#FFFFFF" stroke="none" x="4.9970703125" y="-3" width="52.005859375" height="16"/></g><text fill="#000000" stroke="none" font-family="Arial" font-size="12px" font-style="normal" font-weight="normal" text-decoration="none" x="6.9970703125" y="11">Confirms</text><g><rect fill="#FFFFFF" stroke="none" x="-1.3544921875" y="13" width="64.708984375" height="18"/></g><text fill="#000000" stroke="none" font-family="Arial" font-size="12px" font-style="normal" font-weight="normal" text-decoration="none" x="0.6455078125" y="25"> application</text></g><g transform="matrix(1,0,0,1,168.5,246)"><g transform="translate(0,0)"><g transform="translate(-177,-246) translate(8.5,0) matrix(1,0,0,1,0,0)"><g><path fill="none" stroke="#000000" d="M 330 250 L 330 309.7014925373134 L 172.5 309.7014925373134 L 172.5 470" stroke-miterlimit="10"/></g></g></g></g><g transform="scale(1,1) matrix(1,0,0,1,177,246) translate(15.784394091717559,69.70149253731341)"><g><rect fill="#FFFFFF" stroke="none" x="35.330078125" y="-3" width="49.33984375" height="16"/></g><text fill="#000000" stroke="none" font-family="Arial" font-size="12px" font-style="normal" font-weight="normal" text-decoration="none" x="37.330078125" y="11">confirms</text><g><rect fill="#FFFFFF" stroke="none" x="0.3056640625" y="13" width="119.388671875" height="18"/></g><text fill="#000000" stroke="none" font-family="Arial" font-size="12px" font-style="normal" font-weight="normal" text-decoration="none" x="2.3056640625" y="25">withdrawn/completion</text></g><g transform="translate(0.5,0.5) matrix(1,0,0,1,626.5,57.67164179104478)"><g><g transform="translate(0,0) translate(0,0) scale(2.1,2)"><g><path fill="#FFFFFF" stroke="none" d="M 20 5 A 5 5 0 1 0 19.999997500000205 5.004999999166668 Z"/><g transform="scale(0.47619047619047616,0.5)"><path fill="none" stroke="#000000" d="M 31.5 0 C 37.29898935 0 42 4.477153 42 10 C 42 15.522846999999999 37.29898935 20 31.5 20 C 25.70101065 20 21 15.522846999999999 21 10 C 21 4.477153 25.70101065 0 31.5 0 Z" stroke-miterlimit="10"/></g></g><g><g transform="scale(0.47619047619047616,0.5)"><path fill="none" stroke="#000000" d="M 31.5 20 L 31.5 60" stroke-miterlimit="10"/></g></g><g><g transform="scale(0.47619047619047616,0.5)"><path fill="none" stroke="#000000" d="M 31.5 60 L 21 100" stroke-miterlimit="10"/></g></g><g><g transform="scale(0.47619047619047616,0.5)"><path fill="none" stroke="#000000" d="M 31.5 60 L 42 100" stroke-miterlimit="10"/></g></g><g><g transform="scale(0.47619047619047616,0.5)"><path fill="none" stroke="#000000" d="M 31.5 60 L 42 100" stroke-miterlimit="10"/></g></g><g><g transform="scale(0.47619047619047616,0.5)"><path fill="none" stroke="#000000" d="M 0 30 L 63 30" stroke-miterlimit="10"/></g></g></g></g></g><g transform="scale(1,1) matrix(1,0,0,1,628.5,57.67164179104478) translate(5.5,102)"><text fill="#000000" stroke="none" font-family="Arial" font-size="12px" font-style="normal" font-weight="normal" text-decoration="none" x="2.31640625" y="11">Student</text></g><g transform="translate(0,0) matrix(1,0,0,1,461.5,345)"><g><g transform="translate(0,0) scale(2.5,1.1)"><g><path fill="#FFFFFF" stroke="none" d="M 100 50 A 50 50 0 1 0 99.99997500000207 50.04999999166668 Z"/><g transform="scale(0.4,0.9090909090909091)"><path fill="none" stroke="#333333" d="M 125 0 M 125 0 C 194.0355875 0 250 24.624341500000007 250 55.00000000000001 C 250 85.37565850000001 194.0355875 110.00000000000001 125 110.00000000000001 C 55.96441250000001 110.00000000000001 0 85.37565850000001 0 55.00000000000001 C 0 24.624341500000007 55.96441250000001 0 125 0 Z" stroke-miterlimit="10" stroke-width="2"/></g></g></g></g></g><g transform="scale(1,1) matrix(1,0,0,1,466.5,345) translate(8,48)"><text fill="#000000" stroke="none" font-family="Arial" font-size="12px" font-style="normal" font-weight="normal" text-decoration="none" x="30.29101562499993" y="11">Notification for&#160;</text><text fill="#000000" stroke="none" font-family="Arial" font-size="12px" font-style="normal" font-weight="normal" text-decoration="none" x="110.32421874999993" y="11">Scheduled&#160;</text><text fill="#000000" stroke="none" font-family="Arial" font-size="12px" font-style="normal" font-weight="normal" text-decoration="none" x="170.37109374999994" y="11">Test</text></g><g transform="matrix(1,0,0,1,582.5,153.67164179104478)"><g transform="translate(0,0)"><g transform="translate(-341,-200) translate(-241.5,46.32835820895522) matrix(1,0,0,1,0,0)"><g><path fill="none" stroke="#000000" d="M 658 157.67164179104478 L 658 251.33582089552237 L 586.5 251.33582089552237 L 586.5 345" stroke-miterlimit="10"/></g></g></g></g><g transform="scale(1,1) matrix(1,0,0,1,341,200) translate(230.4973371030311,37.335820895522374)"><g><rect fill="#FFFFFF" stroke="none" x="9.48046875" y="-3" width="54.0390625" height="16"/></g><text fill="#000000" stroke="none" font-family="Arial" font-size="12px" font-style="normal" font-weight="normal" text-decoration="none" x="11.48046875" y="11">Schedule</text><g><rect fill="#FFFFFF" stroke="none" x="0.486328125" y="13" width="72.02734375" height="18"/></g><text fill="#000000" stroke="none" font-family="Arial" font-size="12px" font-style="normal" font-weight="normal" text-decoration="none" x="2.486328125" y="25">Confirmation</text></g><g transform="matrix(1,0,0,1,416,103.67164179104478)"><g transform="translate(0,0)"><g transform="translate(-204,-99) translate(-212,-4.671641791044777) matrix(1,0,0,1,0,0)"><g><path fill="none" stroke="#000000" d="M 420 195 L 523.25 195 L 523.25 107.67164179104478 L 626.5 107.67164179104478" stroke-miterlimit="10"/></g></g></g></g><g transform="scale(1,1) matrix(1,0,0,1,204,99) translate(268.75,0.7531239153071567)"><g><rect fill="#FFFFFF" stroke="none" x="10.828125" y="-3" width="39.34375" height="16"/></g><text fill="#000000" stroke="none" font-family="Arial" font-size="12px" font-style="normal" font-weight="normal" text-decoration="none" x="12.828125" y="11">Drops/</text><g><rect fill="#FFFFFF" stroke="none" x="0.4833984375" y="13" width="60.033203125" height="18"/></g><text fill="#000000" stroke="none" font-family="Arial" font-size="12px" font-style="normal" font-weight="normal" text-decoration="none" x="2.4833984375" y="25">Graduates</text></g><g transform="matrix(1,0,0,1,200,13.671641791044777)"><g transform="translate(0,0)"><g transform="translate(-128,-42) translate(-72,28.328358208955223) matrix(1,0,0,1,0,0)"><g><path fill="none" stroke="#000000" d="M 204 74.5 L 431 74.5 L 431 17.671641791044777 L 658 17.671641791044777 L 658 57.67164179104478" stroke-miterlimit="10"/></g></g></g></g><g transform="scale(1,1) matrix(1,0,0,1,128,42) translate(199.3626698907696,18.5)"><g><rect fill="#FFFFFF" stroke="none" x="0.4833984375" y="-3" width="60.033203125" height="16"/></g><text fill="#000000" stroke="none" font-family="Arial" font-size="12px" font-style="normal" font-weight="normal" text-decoration="none" x="2.4833984375" y="11">Applies at&#160;</text><g><rect fill="#FFFFFF" stroke="none" x="15.498046875" y="13" width="30.00390625" height="18"/></g><text fill="#000000" stroke="none" font-family="Arial" font-size="12px" font-style="normal" font-weight="normal" text-decoration="none" x="17.498046875" y="25">ODS</text></g><g transform="matrix(1,0,0,1,200,396)"><g transform="translate(0,0)"><g transform="translate(-188.0597014925373,-358.2089552238806) translate(-11.9402985074627,-37.791044776119406) matrix(1,0,0,1,0,0)"><g><path fill="none" stroke="#000000" d="M 204 520 L 332.75 520 L 332.75 400 L 461.5 400" stroke-miterlimit="10"/></g></g></g></g><g transform="scale(1,1) matrix(1,0,0,1,188.0597014925373,358.2089552238806) translate(112.6902985074627,79.74906482624476)"><g><rect fill="#FFFFFF" stroke="none" x="4.98046875" y="-3" width="54.0390625" height="16"/></g><text fill="#000000" stroke="none" font-family="Arial" font-size="12px" font-style="normal" font-weight="normal" text-decoration="none" x="6.98046875" y="11">Schedule</text><g><rect fill="#FFFFFF" stroke="none" x="0.3193359375" y="13" width="63.361328125" height="18"/></g><text fill="#000000" stroke="none" font-family="Arial" font-size="12px" font-style="normal" font-weight="normal" text-decoration="none" x="2.3193359375" y="25">Notification</text></g><g transform="translate(0.5,0.5) matrix(1,0,0,1,1018.4328358208954,455)"><g><g transform="translate(0,0) translate(0,0) scale(2.1,2)"><g><path fill="#FFFFFF" stroke="none" d="M 20 5 A 5 5 0 1 0 19.999997500000205 5.004999999166668 Z"/><g transform="scale(0.47619047619047616,0.5)"><path fill="none" stroke="#000000" d="M 31.5 0 C 37.29898935 0 42 4.477153 42 10 C 42 15.522846999999999 37.29898935 20 31.5 20 C 25.70101065 20 21 15.522846999999999 21 10 C 21 4.477153 25.70101065 0 31.5 0 Z" stroke-miterlimit="10"/></g></g><g><g transform="scale(0.47619047619047616,0.5)"><path fill="none" stroke="#000000" d="M 31.5 20 L 31.5 60" stroke-miterlimit="10"/></g></g><g><g transform="scale(0.47619047619047616,0.5)"><path fill="none" stroke="#000000" d="M 31.5 60 L 21 100" stroke-miterlimit="10"/></g></g><g><g transform="scale(0.47619047619047616,0.5)"><path fill="none" stroke="#000000" d="M 31.5 60 L 42 100" stroke-miterlimit="10"/></g></g><g><g transform="scale(0.47619047619047616,0.5)"><path fill="none" stroke="#000000" d="M 31.5 60 L 42 100" stroke-miterlimit="10"/></g></g><g><g transform="scale(0.47619047619047616,0.5)"><path fill="none" stroke="#000000" d="M 0 30 L 63 30" stroke-miterlimit="10"/></g></g></g></g></g><g transform="scale(1,1) matrix(1,0,0,1,1020.4328358208954,455) translate(6,102)"><text fill="#000000" stroke="none" font-family="Arial" font-size="12px" font-style="normal" font-weight="normal" text-decoration="none" x="2.49609375" y="11">System</text></g><g transform="matrix(1,0,0,1,707.5,396)"><g transform="translate(0,0)"><g transform="translate(-388.0597014925373,-301.4925373134328) translate(-319.4402985074627,-94.50746268656718) matrix(1,0,0,1,0,0)"><g><path fill="none" stroke="#000000" d="M 711.5 400 L 864.9664179104477 400 L 864.9664179104477 505 L 1018.4328358208954 505" stroke-miterlimit="10"/></g></g></g></g><g transform="scale(1,1) matrix(1,0,0,1,388.0597014925373,301.4925373134328) translate(441.40671641791045,125.18971739662351)"><g><rect fill="#FFFFFF" stroke="none" x="0.48828125" y="-3" width="70.0234375" height="16"/></g><text fill="#000000" stroke="none" font-family="Arial" font-size="12px" font-style="normal" font-weight="normal" text-decoration="none" x="2.48828125" y="11">Test/Testing</text><g><rect fill="#FFFFFF" stroke="none" x="3.154296875" y="13" width="64.69140625" height="18"/></g><text fill="#000000" stroke="none" font-family="Arial" font-size="12px" font-style="normal" font-weight="normal" text-decoration="none" x="5.154296875" y="25">instructions</text></g><g transform="matrix(1,0,0,1,582.5,451)"><g transform="translate(0,0)"><g transform="translate(-370.14925373134326,-398.5074626865671) translate(-212.35074626865674,-52.49253731343288) matrix(1,0,0,1,0,0)"><g><path fill="none" stroke="#000000" d="M 586.5 455 L 586.5 512.5 L 661.5 512.5 L 661.5 570" stroke-miterlimit="10"/></g></g></g></g><g transform="scale(1,1) matrix(1,0,0,1,370.14925373134326,398.5074626865671) translate(200.01674113857246,99.99253731343288)"><g><rect fill="#FFFFFF" stroke="none" x="0.6494140625" y="-3" width="78.701171875" height="16"/></g><text fill="#000000" stroke="none" font-family="Arial" font-size="12px" font-style="normal" font-weight="normal" text-decoration="none" x="2.6494140625" y="11">Request Test/</text><g><rect fill="#FFFFFF" stroke="none" x="7.3203125" y="13" width="65.359375" height="18"/></g><text fill="#000000" stroke="none" font-family="Arial" font-size="12px" font-style="normal" font-weight="normal" text-decoration="none" x="9.3203125" y="25">Instructions</text></g><g transform="translate(0,0) matrix(1,0,0,1,923.9328358208954,80)"><g><g transform="translate(0,0) scale(2.1,1.2)"><g><path fill="#FFFFFF" stroke="none" d="M 100 50 A 50 50 0 1 0 99.99997500000207 50.04999999166668 Z"/><g transform="scale(0.47619047619047616,0.8333333333333334)"><path fill="none" stroke="#333333" d="M 105 0 M 105 0 C 162.9898935 0 210 26.862918 210 60 C 210 93.13708199999999 162.9898935 120 105 120 C 47.010106500000006 120 0 93.13708199999999 0 60 C 0 26.862918 47.010106500000006 0 105 0 Z" stroke-miterlimit="10" stroke-width="2"/></g></g></g></g></g><g transform="scale(1,1) matrix(1,0,0,1,928.1328358208955,80) translate(8,53)"><text fill="#000000" stroke="none" font-family="Arial" font-size="12px" font-style="normal" font-weight="normal" text-decoration="none" x="54.44453124999998" y="11">Schedule&#160;</text><text fill="#000000" stroke="none" font-family="Arial" font-size="12px" font-style="normal" font-weight="normal" text-decoration="none" x="107.81757812499998" y="11">Test</text></g><g transform="matrix(1,0,0,1,1024.9328358208954,196)"><g transform="translate(0,0)"><g transform="translate(-537.3134328358209,-213.43283582089552) translate(-487.61940298507454,17.43283582089552) matrix(1,0,0,1,0,0)"><g><path fill="none" stroke="#000000" d="M 1049.9328358208954 455 L 1049.9328358208954 327.5 L 1028.9328358208954 327.5 L 1028.9328358208954 200" stroke-miterlimit="10"/></g></g></g></g><g transform="scale(1,1) matrix(1,0,0,1,537.3134328358209,213.43283582089552) translate(453.11940298507454,44.557989867177895)"><g><rect fill="#FFFFFF" stroke="none" x="0.4853515625" y="-3" width="76.029296875" height="18"/></g><text fill="#000000" stroke="none" font-family="Arial" font-size="12px" font-style="normal" font-weight="normal" text-decoration="none" x="2.4853515625" y="11">Confirm Input</text></g><g transform="translate(0,0) matrix(1,0,0,1,1220,70)"><g><g transform="translate(0,0) scale(2.1,1.3)"><g><path fill="#FFFFFF" stroke="none" d="M 100 50 A 50 50 0 1 0 99.99997500000207 50.04999999166668 Z"/><g transform="scale(0.47619047619047616,0.7692307692307692)"><path fill="none" stroke="#333333" d="M 105 0 M 105 0 C 162.9898935 0 210 29.1014945 210 65 C 210 100.8985055 162.9898935 130 105 130 C 47.010106500000006 130 0 100.8985055 0 65 C 0 29.1014945 47.010106500000006 0 105 0 Z" stroke-miterlimit="10" stroke-width="2"/></g></g></g></g></g><g transform="scale(1,1) matrix(1,0,0,1,1224.2,70) translate(8,58)"><text fill="#000000" stroke="none" font-family="Arial" font-size="12px" font-style="normal" font-weight="normal" text-decoration="none" x="36.43574218749997" y="11">View Scheduled&#160;</text><text fill="#000000" stroke="none" font-family="Arial" font-size="12px" font-style="normal" font-weight="normal" text-decoration="none" x="125.82636718749997" y="11">Test</text></g><g transform="matrix(1,0,0,1,1077.4328358208954,196)"><g transform="translate(0,0)"><g transform="translate(-713.4328358208954,-277.6119402985074) translate(-364,81.61194029850742) matrix(1,0,0,1,0,0)"><g><path fill="none" stroke="#000000" d="M 1081.4328358208954 505 L 1325 505 L 1325 200" stroke-miterlimit="10"/></g></g></g></g><g transform="scale(1,1) matrix(1,0,0,1,713.4328358208954,277.6119402985074) translate(561.0671641791046,105.77814035134014)"><g><rect fill="#FFFFFF" stroke="none" x="0.4619140625" y="-3" width="100.076171875" height="16"/></g><text fill="#000000" stroke="none" font-family="Arial" font-size="12px" font-style="normal" font-weight="normal" text-decoration="none" x="2.4619140625" y="11">Look up Schedule</text><g><rect fill="#FFFFFF" stroke="none" x="16.478515625" y="13" width="68.04296875" height="18"/></g><text fill="#000000" stroke="none" font-family="Arial" font-size="12px" font-style="normal" font-weight="normal" text-decoration="none" x="18.478515625" y="25">in Database</text></g><g transform="matrix(1,0,0,1,685.5,103.67164179104478)"><g transform="translate(0,0)"><g transform="translate(-434.3283582089552,-149.25373134328356) translate(-251.1716417910448,45.582089552238784) matrix(1,0,0,1,0,0)"><g><path fill="none" stroke="#000000" d="M 689.5 107.67164179104478 L 806.7164179104477 107.67164179104478 L 806.7164179104477 140 L 923.9328358208954 140" stroke-miterlimit="10"/></g></g></g></g><g transform="scale(1,1) matrix(1,0,0,1,434.3283582089552,149.25373134328356) translate(306.5475886938365,-14.868760262907323)"><g><rect fill="#FFFFFF" stroke="none" x="32.6552734375" y="-3" width="30.689453125" height="16"/></g><text fill="#000000" stroke="none" font-family="Arial" font-size="12px" font-style="normal" font-weight="normal" text-decoration="none" x="34.6552734375" y="11">Input</text><g><rect fill="#FFFFFF" stroke="none" x="0.3115234375" y="13" width="95.376953125" height="18"/></g><text fill="#000000" stroke="none" font-family="Arial" font-size="12px" font-style="normal" font-weight="normal" text-decoration="none" x="2.3115234375" y="25">Course/time/date</text></g><g transform="matrix(1,0,0,1,654,31.791044776119392)"><g transform="translate(0,0)"><g transform="translate(-407.46268656716416,-41.7910447761194) translate(-246.53731343283584,10.000000000000007) matrix(1,0,0,1,0,0)"><g><path fill="none" stroke="#000000" d="M 658 57.67164179104478 L 658 35.79104477611939 L 1325 35.79104477611939 L 1325 70" stroke-miterlimit="10"/></g></g></g></g><g transform="translate(0.5,0.5) matrix(1,0,0,1,630,570)"><g><g transform="translate(0,0) translate(0,0) scale(2.1,2)"><g><path fill="#FFFFFF" stroke="none" d="M 20 5 A 5 5 0 1 0 19.999997500000205 5.004999999166668 Z"/><g transform="scale(0.47619047619047616,0.5)"><path fill="none" stroke="#000000" d="M 31.5 0 C 37.29898935 0 42 4.477153 42 10 C 42 15.522846999999999 37.29898935 20 31.5 20 C 25.70101065 20 21 15.522846999999999 21 10 C 21 4.477153 25.70101065 0 31.5 0 Z" stroke-miterlimit="10"/></g></g><g><g transform="scale(0.47619047619047616,0.5)"><path fill="none" stroke="#000000" d="M 31.5 20 L 31.5 60" stroke-miterlimit="10"/></g></g><g><g transform="scale(0.47619047619047616,0.5)"><path fill="none" stroke="#000000" d="M 31.5 60 L 21 100" stroke-miterlimit="10"/></g></g><g><g transform="scale(0.47619047619047616,0.5)"><path fill="none" stroke="#000000" d="M 31.5 60 L 42 100" stroke-miterlimit="10"/></g></g><g><g transform="scale(0.47619047619047616,0.5)"><path fill="none" stroke="#000000" d="M 31.5 60 L 42 100" stroke-miterlimit="10"/></g></g><g><g transform="scale(0.47619047619047616,0.5)"><path fill="none" stroke="#000000" d="M 0 30 L 63 30" stroke-miterlimit="10"/></g></g></g></g></g><g transform="scale(1,1) matrix(1,0,0,1,632,570) translate(4,102)"><text fill="#000000" stroke="none" font-family="Arial" font-size="12px" font-style="normal" font-weight="normal" text-decoration="none" x="2.4892578125" y="11">Teacher</text></g></g></svg>